<?xml version="1.0" standalone="no"?><!DOCTYPE svg PUBLIC "-//W3C//DTD SVG 1.1//EN" "http://www.w3.org/Graphics/SVG/1.1/DTD/svg11.dtd"><svg class="icon" width="16px" height="16.00px" viewBox="0 0 1024 1024" version="1.1" xmlns="http://www.w3.org/2000/svg"><path d="M838.848 64l10.88 0.448c29.056 2.496 57.408 14.784 79.616 36.992l7.424 8.128a128 128 0 0 1-7.488 172.864l-90.432 90.56 67.968 67.904 5.312 6.016a64 64 0 0 1-5.376 84.416l-45.44 45.376-5.952 5.312a63.936 63.936 0 0 1-84.416-5.312l-45.248-45.312-316.8 316.736-8.64 7.872a128.32 128.32 0 0 1-114.944 25.344l-57.408 57.344-7.296 6.592a96 96 0 0 1-128.448-6.592l-6.656-7.296a96 96 0 0 1 6.592-128.448l57.408-57.408-2.368-10.752a127.936 127.936 0 0 1 35.52-112.896l316.8-316.8-45.312-45.248-5.376-6.08a64.128 64.128 0 0 1 0.384-78.784l4.992-5.568 45.312-45.376 6.08-5.312a64 64 0 0 1 84.352 5.312L657.792 192l90.56-90.56c24.96-24.96 57.728-37.44 90.496-37.44zM182.656 802.944l-45.312 45.184-3.712 4.48a32 32 0 0 0 0 36.416l3.712 4.416a32.128 32.128 0 0 0 22.656 9.344l6.08-0.64a32.192 32.192 0 0 0 16.512-8.704l45.248-45.312-45.248-45.184zM544.64 350.4l-316.8 316.736-5.312 6.016c-19.456 25.024-17.664 61.44 5.376 84.544l45.248 45.248a64 64 0 0 0 45.312 18.688l8.128-0.512a63.296 63.296 0 0 0 37.056-18.176l316.8-316.8L544.64 350.4z m333.44-208.96a64 64 0 0 0-84.48 5.312l-135.808 135.68L544.64 169.28l-45.184 45.376 45.184 45.248h0.128l271.616 271.488 45.184-45.312L793.6 418.304l-45.12-45.312 135.68-135.744 5.312-6.016a64 64 0 0 0-5.376-84.48z" /></svg>