<?xml version="1.0" standalone="no"?><!DOCTYPE svg PUBLIC "-//W3C//DTD SVG 1.1//EN" "http://www.w3.org/Graphics/SVG/1.1/DTD/svg11.dtd"><svg class="icon" width="16px" height="16.00px" viewBox="0 0 1024 1024" version="1.1" xmlns="http://www.w3.org/2000/svg"><path d="M992 224A32 32 0 0 1 1024 256v512a32 32 0 1 1-64 0v-207.786667l-401.066667 232.661334c-34.56 20.053333-78.933333-4.224-78.933333-44.586667v-188.16l-401.066667 232.704c-34.56 20.138667-78.933333-4.096-78.933333-44.501333V275.712c0-40.32 44.373333-64.64 78.933333-44.544l401.066667 232.704v-188.16c0-40.32 44.373333-64.64 78.933333-44.544l401.066667 232.704V256a32 32 0 0 1 32-32z" fill="#000000" /></svg>