<?xml version="1.0" standalone="no"?><!DOCTYPE svg PUBLIC "-//W3C//DTD SVG 1.1//EN" "http://www.w3.org/Graphics/SVG/1.1/DTD/svg11.dtd"><svg class="icon" width="16px" height="16.00px" viewBox="0 0 1024 1024" version="1.1" xmlns="http://www.w3.org/2000/svg"><path d="M764.970667 125.013333c71.594667-0.938667 127.530667 54.698667 129.28 129.322667 1.450667 59.52 1.621333 138.453333 1.365333 235.989333-0.128 56.234667-1.28 265.898667-1.322667 274.688-0.64 72.96-57.6 128-129.322666 128a124.032 124.032 0 0 1-66.688-18.688c-26.624-16.170667-86.869333-59.989333-174.677334-126.634666l-177.322666-137.344c-37.888-28.928-51.285333-69.248-49.322667-103.978667 0.725333-13.098667 2.218667-24.704 6.656-38.698667 7.210667-22.613333 19.072-42.752 38.656-57.301333 21.76-16.170667 175.018667-132.906667 177.365333-134.698667 91.434667-69.546667 150.058667-112.298667 179.968-131.968 21.845333-14.421333 40.021333-18.730667 64-18.688h1.365334z m-594.688 0a42.666667 42.666667 0 0 1 42.666666 42.666667v682.666667a42.666667 42.666667 0 0 1-85.333333 0v-682.666667a42.666667 42.666667 0 0 1 42.666667-42.666667z" fill="#000000" /></svg>