<?xml version="1.0" standalone="no"?><!DOCTYPE svg PUBLIC "-//W3C//DTD SVG 1.1//EN" "http://www.w3.org/Graphics/SVG/1.1/DTD/svg11.dtd"><svg class="icon" width="16px" height="16.00px" viewBox="0 0 1024 1024" version="1.1" xmlns="http://www.w3.org/2000/svg"><path fill="#ffffff" d="M32 224A32 32 0 0 1 64 256v207.872l401.088-232.704c33.28-19.328 78.912 2.752 78.912 44.544v188.16l401.088-232.704c33.28-19.328 78.912 2.752 78.912 44.544v472.576c0 41.792-45.632 63.872-78.912 44.544L544 560.128v188.16c0 41.792-45.632 63.872-78.912 44.544L64 560.128V768a32 32 0 0 1-64 0V256a32 32 0 0 1 32-32z m448 72.512L108.544 512 480 727.488V296.512z m480 0L588.544 512 960 727.488V296.512z" /></svg>