<?xml version="1.0" standalone="no"?><!DOCTYPE svg PUBLIC "-//W3C//DTD SVG 1.1//EN" "http://www.w3.org/Graphics/SVG/1.1/DTD/svg11.dtd"><svg class="icon" width="16px" height="16.00px" viewBox="0 0 1024 1024" version="1.1" xmlns="http://www.w3.org/2000/svg"><path d="M992 224a32 32 0 0 1 32 32v512a32 32 0 0 1-64 0V560.128l-401.088 232.704c-33.28 19.328-78.912-2.752-78.912-44.544v-188.16l-401.088 232.704C45.632 812.16 0 790.08 0 748.288V275.712c0-41.792 45.632-63.872 78.912-44.544L480 463.872v-188.16c0-41.792 45.632-63.872 78.912-44.544L960 463.872V256a32 32 0 0 1 32-32zM64 296.512v430.976L435.456 512 64 296.512z m480 0v430.976L915.456 512 544 296.512z" /></svg>