<?xml version="1.0" standalone="no"?><!DOCTYPE svg PUBLIC "-//W3C//DTD SVG 1.1//EN" "http://www.w3.org/Graphics/SVG/1.1/DTD/svg11.dtd"><svg class="icon" width="16px" height="16.00px" viewBox="0 0 1024 1024" version="1.1" xmlns="http://www.w3.org/2000/svg"><path fill="#ffffff" d="M32 224A32 32 0 0 0 0 256v512a32 32 0 0 0 64 0V560.192l401.088 232.704c34.56 20.032 78.912-4.224 78.912-44.608v-188.16l401.088 232.704c34.56 20.096 78.912-4.16 78.912-44.544V275.712c0-40.32-44.352-64.64-78.912-44.544L544 463.872v-188.16c0-40.32-44.288-64.64-78.912-44.544L64 463.872V256a32 32 0 0 0-32-32z"  /></svg>